<?xml version="1.0" encoding="utf-8"?>
<!-- Generator: Adobe Illustrator 22.1.0, SVG Export Plug-In . SVG Version: 6.00 Build 0)  -->
<svg version="1.1" id="图层_1" xmlns="http://www.w3.org/2000/svg" xmlns:xlink="http://www.w3.org/1999/xlink" x="0px" y="0px"
	 viewBox="0 0 885 400" style="enable-background:new 0 0 885 400;" xml:space="preserve">
<style type="text/css">
	.st0{fill:#F73939;}
	.st1{fill:#FFFFFF;}
</style>
<g>
	
		<rect x="-74.9" y="90.7" transform="matrix(0.9893 -0.1458 0.1458 0.9893 -26.1908 65.0602)" class="st0" width="1011.3" height="241"/>
</g>
<g>
	<path class="st1" d="M237.6,201.3c-0.2,1-0.2,2.4-0.2,3.2c-16,5.4-18.1,6.2-19.3,7c-0.1-0.7-0.6-2.3-1-3.2c1.2-0.4,2.7-2,4.7-4.3
		c1.1-1.3,3.9-4.7,6.9-8.9c-7.8,2.2-9.2,2.7-10,3.1c-0.1-0.7-0.6-2.4-1-3.3c1-0.4,2.2-1.9,3.7-4.1c1.5-2,6.5-10.1,9.5-17.3l3.5,1.1
		c-3.2,6.5-7.2,13.3-11.2,18.8l8.1-2c1.5-2.1,2.9-4.3,4.1-6.5l3,1.3c-4.4,6.9-9.4,13.7-14.3,19.4L237.6,201.3z M216.5,219.1
		c5.1-1.7,13.1-4.6,20.8-7.4l0.2,3.1c-7.3,2.8-14.9,5.5-20.6,7.7L216.5,219.1z M261,215.6c3.2-0.5,3.8-1.8,4.5-7.9
		c0.9,0.5,2.3,0.8,3.4,0.9c-1,7.3-2.3,9.5-7.9,10.3l-14.1,2c-6,0.9-7.8-0.1-7.4-5.2l1.7-25.6c-0.6,0.6-1,1.3-1.5,1.8
		c-0.6-0.5-2-1.5-2.8-1.9c4.8-5,9.4-12.3,12.3-19.4l3.4,0.4c-0.8,1.9-1.7,3.8-2.7,5.7l11-1.6l0.7-0.3l2.3,1.3c-1.7,3-3.9,6.5-6,9.3
		l9.4-1.3l-1.1,17.1l-22.5,3.2l-0.7,10.7c-0.2,2.4,0.5,2.9,4.3,2.4L261,215.6z M247.9,180.3c-1.5,2.6-3.2,5-4.8,7.3l11.2-1.6
		l-0.2-0.1c1.5-1.9,3.3-4.7,4.6-7.1L247.9,180.3z M243.8,201.2l7.8-1.1l0.7-10.6l-7.8,1.1L243.8,201.2z M263.4,187.8l-7.7,1.1
		l-0.7,10.6l7.7-1.1L263.4,187.8z"/>
	<path class="st1" d="M308.5,170.4c-1.4,2.3-3,4.6-4.6,6.9l-2.4,36.6l-4.1,0.6l2.1-31.7c-6.3,7.4-13.9,14.3-22.3,19.7
		c-0.6-0.8-1.7-2.1-2.4-2.8c11.8-7.2,22.4-18.1,28.9-28.6l-25.9,3.7l0.2-3.7l49-7l-0.2,3.7L308.5,170.4z M308,180
		c6.6,3.3,14.9,8.2,18.8,11.8l-3.2,3.2c-3.8-3.6-12-8.9-18.6-12.2L308,180z"/>
	<path class="st1" d="M351,191.8c0.3,1,0.8,2.3,1.1,3c-11,8.9-12.6,10.3-13.5,11.4c-0.3-0.8-1.3-2.4-2-3c1.1-0.9,3.4-3,3.5-5.4
		l1.2-19l-8.5,1.2l0.2-3.6l12.4-1.8l-1.5,22.5L351,191.8z M346.2,169.7c-1.7-2.2-5.2-5.4-8.1-7.7l2.7-2.6c2.9,2.2,6.6,5.2,8.2,7.3
		L346.2,169.7z M377.9,198.9c1.4-0.2,1.8-1.1,2.3-7.1c0.8,0.4,2.3,0.8,3.3,1c-0.9,7.1-2,9-5.5,9.5l-6,0.9c-4.1,0.6-5-0.4-4.7-4.3
		l1.1-16.4l-5.4,0.8c-1.6,10.8-4.6,18.6-15.3,24.3c-0.3-0.8-1.3-2-2.1-2.5c9.8-4.9,12.3-11.8,13.6-21.2l-7.4,1.1l1.1-17.3l17.4-2.5
		c1.9-3.4,4.4-8.3,5.7-11.8l3.8,0.7c-1.7,3.5-3.7,7.4-5.5,10.6l6-0.9l-1.1,17.3l-7.2,1l-1.1,16.4c-0.1,1.4,0.1,1.6,1.7,1.4
		L377.9,198.9z M360.6,166.3c-0.6-2.4-2.6-6.2-4.5-8.8l3.2-1.7c2,2.6,4.1,6.2,4.8,8.6L360.6,166.3z M355.7,180.9l20.1-2.9l0.7-10.6
		l-20.1,2.9L355.7,180.9z"/>
	<path class="st1" d="M412.6,192.1l-0.4,6.1l-3.7,0.5l0.4-5.6c-7.3,1.9-14.5,3.8-19.8,5.2l-0.2-3.3c1.7-0.4,3.7-0.9,5.8-1.4
		l1.2-19.1l-5.6,0.8l0.2-3.1l51.2-7.3l-0.2,3.1l-27.5,3.9l-1.1,17.1l3.2-0.8l-0.2,2.9L412.6,192.1z M435.1,162.7L398,168l1.1-16.4
		l37.1-5.3L435.1,162.7z M399.4,174.1l-0.3,4l10.9-1.6l0.3-4L399.4,174.1z M398.7,185.1l10.9-1.6l0.3-4.2l-10.9,1.6L398.7,185.1z
		 M398.1,192.9c3.5-0.9,7.2-1.8,11-2.8l0.2-3.7l-10.9,1.6L398.1,192.9z M432.2,149.6l-29.7,4.2l-0.3,4.1l29.7-4.2L432.2,149.6z
		 M431.7,156.3l-29.7,4.2l-0.3,4.2l29.7-4.2L431.7,156.3z M439.4,172.8c-2.1,5.8-5.4,10.6-9.5,14.7c3.1,1.9,6.7,3.1,10.9,3.6
		c-0.8,0.8-1.9,2.2-2.5,3.2c-4.3-0.6-8-2.1-11.1-4.2c-3.6,3.1-7.6,5.6-11.6,7.5c-0.3-0.8-1.2-1.9-1.8-2.4c3.7-1.6,7.6-4,11.1-6.9
		c-2.9-2.6-5.1-5.9-6.6-9.9l0.9-0.4l-3.4,0.5l0.2-3.1l20.6-2.9l0.7-0.2L439.4,172.8z M421.7,177.6c1.3,3.2,3.3,5.9,5.8,8.1
		c2.9-2.9,5.5-6.2,7.2-10L421.7,177.6z"/>
	<path class="st1" d="M499.7,150.7l-0.2,3.6l-41.6,6v0.3c-0.6,9.1-2.4,22.6-9.6,32.6c-0.6-0.7-2.1-1.7-3-2.1
		c6.7-9.4,8.1-21.4,8.7-29.9l0.9-14.2c13.7-2.8,29.7-6.6,38.6-10l3,2.5c-10,3.6-24.8,7.2-37.9,9.9l-0.5,7.3L499.7,150.7z
		 M462.4,167.7l32.3-4.6l-1.5,23.6l-4,0.6l0.2-2.9l-24.5,3.5l-0.2,2.9l-3.8,0.5L462.4,167.7z M466,170.6l-0.9,13.7l24.5-3.5
		l0.9-13.7L466,170.6z"/>
	<path class="st1" d="M557,149.9l-0.3,4l-52.1,7.4l0.3-4L557,149.9z"/>
	<path class="st1" d="M593.3,123.6c-0.5,0.9-1.1,1.8-1.6,2.6c6.4,7.4,14.2,11.7,23.1,14.8c-1,0.9-2.3,2.5-3,3.7
		c-8.6-3.4-15.9-7.7-22.6-15.3c-6.7,8.7-15.6,16.5-24.8,21.9c-0.6-0.9-1.6-2.1-2.6-2.8c11-6.2,21.9-15.9,28.2-26L593.3,123.6z
		 M586.6,138.9l3.9-0.6l-2.3,34.6l-3.9,0.6L586.6,138.9z"/>
	<path class="st1" d="M632.3,133.2c-3.1,3.9-7.2,7.6-10.9,10.1c-0.4-0.9-1.2-1.9-1.9-2.5c4.2-2.4,8.9-6.6,11.9-10.7l-10.8,1.5
		l0.2-3.1l12-1.7l0.7-10.4l3.6-0.5l-0.7,10.4l11.9-1.7l-0.2,3.1l-11.2,1.6c2.7,1.2,7.8,3.8,9.2,4.6l-2.3,3c-1.4-1.1-5-3.4-7.7-5
		l-0.5,8l-3.6,0.5L632.3,133.2z M639.2,161.6c-1.3-0.8-3-1.7-4.9-2.4c-4.3,3.9-9.4,6.7-14.7,8.8c-0.3-0.8-1-2-1.7-2.6
		c4.8-1.7,9.4-4.2,13.4-7.4c-2.8-1-5.9-2-8.6-2.6c1.3-1.9,2.8-4.2,4.1-6.6l-6.3,0.9l0.2-3.2l7.9-1.1c0.7-1.4,1.3-2.6,1.8-3.8
		l3.3,0.1c-0.4,1.1-0.9,2.1-1.5,3.2l9.8-1.4l0.6-0.2l2.1,0.5c-1.8,5-4.5,9.2-7.7,12.8c1.8,0.7,3.5,1.5,4.8,2.2L639.2,161.6z
		 M626.7,127.1c-0.4-1.9-1.7-4.7-3.2-6.8l2.8-1.5c1.5,1.9,2.9,4.7,3.3,6.6L626.7,127.1z M630.4,148.3c-0.9,1.8-2,3.6-3,5.1
		c2.2,0.6,4.6,1.3,6.7,2.1c2.5-2.4,4.6-5.3,6.1-8.6L630.4,148.3z M647,116.9c-1.8,2.8-3.8,5.8-5.6,8l-2.4-0.8
		c1.6-2.2,3.7-5.7,4.8-8.1L647,116.9z M667.6,125.6c-1.9,8.6-4.3,15.8-7.7,22c2.6,4.9,6.2,8.5,10.8,10.3c-1,0.8-2.1,2.2-2.7,3.3
		c-4.4-2-7.8-5.4-10.3-9.9c-3.7,5.5-8.4,10.1-14.6,14c-0.4-0.7-1.3-2.1-2-2.6c6.5-3.9,11.3-8.7,14.9-14.6c-1.9-4.2-3.3-9.2-4.2-14.7
		c-1.3,3.1-2.9,5.9-4.6,8.3c-0.5-0.5-2-1.4-2.7-1.8c4.7-6.5,7.9-16.1,10-25.9h3.4c-0.7,3.4-1.6,6.8-2.6,10l16.4-2.3l-0.2,3.4
		L667.6,125.6z M654.3,127.5c0.7,6.1,2,11.8,4,16.6c2.5-5.2,4.3-11.1,5.7-18L654.3,127.5z"/>
</g>
<g>
	<path class="st1" d="M246.8,280.6l0.6-4.5l1.5-13.4l0.3-2.6c0.1-0.8,0.1-1.5,0.1-1.9c0.8-0.1,1.5-0.2,2.1-0.3
		c0.4-0.1,1.1-0.2,2-0.3l1.7,2.6l10,14.7l2-19.3l1.5-0.2l1.4-0.2l-0.8,5.7l-1.1,10.1l-0.6,6.5c-0.6,0.1-1.3,0.2-2,0.3
		c-0.6,0.1-1.2,0.2-2.1,0.3L262,276l-10.3-14.9c0,0.6-0.2,1.6-0.3,2.9l-1.3,11.6l-0.4,4.6c-0.7,0.1-1.2,0.2-1.4,0.2
		C248.1,280.4,247.6,280.5,246.8,280.6z"/>
	<path class="st1" d="M286.5,272.3c-0.1,0.6-0.4,1.4-0.6,2.4c-1,0.4-2.1,0.7-2.8,0.9c-0.8,0.2-1.5,0.3-2.4,0.4
		c-1.4,0.2-2.7,0.2-3.8,0c-1.1-0.1-2-0.6-2.8-1.3c-0.8-0.7-1.2-1.5-1.6-2.5c-0.2-1-0.4-2.1-0.3-3.2c0.1-1.6,0.5-3.1,1.2-4.6
		s1.8-2.7,3.1-3.7c1.3-1,3-1.6,5-1.9c1-0.1,1.9-0.2,2.9,0c0.9,0.2,1.7,0.4,2.3,1c0.6,0.5,1,1.1,1.3,2s0.4,1.7,0.3,2.7
		c0,0.4-0.1,0.8-0.2,1.1l-12.9,1.8c0,0.6-0.2,1.1-0.2,1.4c-0.1,1.1,0.1,2.2,0.5,3.1s1.1,1.5,2,1.9s2,0.4,3.2,0.2
		C282.6,274,284.4,273.3,286.5,272.3z M275.6,266.2l10-1.4c0-0.7,0-1.2,0-1.6s-0.2-0.8-0.3-1.1c-0.2-0.4-0.5-0.7-0.8-1
		s-0.8-0.4-1.3-0.5s-1-0.1-1.6,0s-1.2,0.3-1.9,0.6c-0.6,0.3-1.2,0.6-1.6,0.9s-0.9,0.8-1.2,1.3c-0.3,0.4-0.6,0.9-0.8,1.3
		C275.9,265.1,275.9,265.6,275.6,266.2z"/>
	<path class="st1" d="M295.2,273.7l-0.5-1.6c-0.2-0.5-0.5-1.7-1.1-3.4l-3.5-10.7c0.7-0.1,1.2-0.2,1.6-0.2c0.4-0.1,0.9-0.1,1.5-0.2
		l0.2,1.1c0.1,0.3,0.3,0.9,0.4,1.5l3.3,10.8l6.2-13.2l0.7-1.7c0.6-0.1,1.2-0.2,1.5-0.2s0.9-0.1,1.5-0.2l-2.5,4.9l-5,10.1l-1.2,2.6
		c-0.7,0.1-1.2,0.2-1.6,0.2C296.5,273.5,295.9,273.6,295.2,273.7z"/>
	<path class="st1" d="M321.7,267.3c-0.1,0.6-0.4,1.4-0.6,2.4c-1,0.4-2.1,0.7-2.8,0.9c-0.8,0.2-1.5,0.3-2.4,0.4
		c-1.4,0.2-2.7,0.2-3.8,0c-1.1-0.1-2-0.6-2.8-1.3c-0.8-0.7-1.2-1.5-1.6-2.5c-0.2-1-0.4-2.1-0.3-3.2c0.1-1.6,0.5-3.1,1.2-4.6
		s1.8-2.7,3.1-3.7c1.3-1,3-1.6,5-1.9c1-0.1,1.9-0.2,2.9,0c0.9,0.2,1.7,0.4,2.3,1c0.6,0.5,1,1.1,1.3,2c0.3,0.9,0.4,1.7,0.3,2.7
		c0,0.4-0.1,0.8-0.2,1.1l-12.9,1.8c0,0.6-0.2,1.1-0.2,1.4c-0.1,1.1,0.1,2.2,0.5,3.1s1.1,1.5,2,1.9s2,0.4,3.2,0.2
		C317.8,268.9,319.6,268.3,321.7,267.3z M310.9,261.1l10-1.4c0-0.7,0-1.2,0-1.6s-0.2-0.8-0.3-1.1c-0.2-0.4-0.5-0.7-0.8-1
		c-0.3-0.3-0.8-0.4-1.3-0.5s-1-0.1-1.6,0s-1.2,0.3-1.9,0.6c-0.6,0.3-1.2,0.6-1.6,0.9c-0.4,0.4-0.9,0.8-1.2,1.3
		c-0.3,0.4-0.6,0.9-0.8,1.3C311.2,260,311.1,260.5,310.9,261.1z"/>
	<path class="st1" d="M325.9,269.3c0.8-6.3,1.4-11.4,1.6-15.1l0.1-1.5c0.6-0.1,1-0.1,1.4-0.2c0.4-0.1,0.9-0.1,1.4-0.2l-0.3,2.7
		c0.5-0.8,0.9-1.3,1.2-1.7c0.3-0.3,0.8-0.7,1.2-1.1c0.4-0.4,0.8-0.5,1.4-0.7c0.5-0.2,1-0.3,1.6-0.4c0.5-0.1,0.9,0,1.4,0
		c0,0.7-0.1,1.5-0.1,2.4c-0.7-0.1-1.3-0.1-1.8,0c-0.6,0.1-1.2,0.3-1.8,0.5c-0.5,0.3-1.1,0.6-1.5,1.2c-0.4,0.5-0.8,1-1.1,1.6
		c-0.2,0.5-0.5,1.2-0.6,2s-0.3,2.2-0.6,4.2c-0.1,1.5-0.3,3-0.4,4.7l-0.1,1.1c-0.6,0.1-1.1,0.2-1.4,0.2
		C327.1,269.1,326.6,269.2,325.9,269.3z"/>
	<path class="st1" d="M337.4,267c0.1-1,0-1.9,0-2.7c1.2,0.3,2.2,0.6,3.1,0.7s1.8,0,2.8-0.1c0.8-0.1,1.7-0.3,2.4-0.7
		c0.7-0.4,1.3-0.9,1.7-1.4c0.4-0.6,0.6-1.2,0.6-1.8c0-0.4-0.1-0.7-0.1-1.1c-0.1-0.3-0.3-0.7-0.6-0.9c-0.3-0.3-0.7-0.7-1.3-1.2
		c-0.7-0.5-1.6-1.2-2.7-2l-1.2-0.8c-0.5-0.3-0.9-0.7-1.2-1c-0.4-0.3-0.7-0.7-0.9-1c-0.3-0.4-0.4-0.6-0.6-0.9c-0.1-0.3-0.2-0.6-0.2-1
		c-0.1-0.4-0.1-0.7,0-1.1c0.1-0.9,0.4-1.8,1-2.7s1.4-1.7,2.5-2.3s2.5-1.1,4.3-1.3c1.2-0.2,2.8-0.2,4.6-0.2c0,0.7,0,1.6,0,2.6
		c-1.7-0.3-3.2-0.4-4.6-0.2c-0.9,0.1-1.8,0.4-2.5,0.9c-0.6,0.4-1.2,0.9-1.5,1.4s-0.6,1.1-0.6,1.6c0,0.3,0,0.6,0,0.9
		c0.1,0.3,0.2,0.6,0.4,0.7c0.3,0.4,0.6,0.7,0.8,1.1c0.4,0.3,0.9,0.8,1.5,1.2c0.2,0.1,0.8,0.5,1.9,1.2s1.9,1.3,2.3,1.7
		c0.5,0.4,0.9,0.8,1.1,1.2c0.3,0.4,0.5,0.8,0.6,1.3c0.2,0.5,0.1,1,0.1,1.6c-0.1,0.9-0.3,1.7-0.8,2.5s-1,1.4-1.8,2s-1.6,1-2.4,1.3
		s-1.9,0.6-2.8,0.7c-0.8,0.1-1.5,0.1-2.4,0.1C340,267.3,338.9,267.2,337.4,267z"/>
	<path class="st1" d="M356.4,251.2c0.1-0.5,0.3-1.2,0.4-2.1c1.4-0.5,2.5-1,3.5-1.2s2-0.5,2.9-0.6c1-0.1,1.9-0.2,2.9-0.1
		c0.9,0.1,1.6,0.3,2.1,0.6c0.6,0.3,0.9,0.8,1,1.2s0.2,1.1,0.2,1.7c-0.1,0.8-0.2,2-0.5,3.8c-0.2,1.8-0.4,3.4-0.6,4.9s-0.3,2.8-0.4,4
		c-0.6,0.1-1.1,0.2-1.4,0.2s-0.8,0.1-1.5,0.2l0.6-4.5l0.6-5.3c-0.4,0.4-0.8,0.6-1,0.7s-0.4,0.3-0.6,0.4s-0.5,0.3-0.8,0.4
		c-0.3,0.1-0.9,0.4-1.8,0.7c-0.8,0.3-1.5,0.6-1.9,0.8c-0.8,0.3-1.4,0.7-1.9,1c-0.4,0.3-0.9,0.6-1.2,1c-0.3,0.3-0.6,0.7-0.7,1
		s-0.3,0.7-0.3,1.1c0,0.6,0.1,1.1,0.4,1.4s0.8,0.6,1.3,0.7s1.2,0.1,1.9,0c0.5-0.1,0.9-0.1,1.4-0.3s1.2-0.4,2.1-0.8
		c-0.2,0.4-0.4,1.1-0.6,2c-0.8,0.3-1.5,0.4-2,0.6c-0.5,0.1-1,0.2-1.4,0.3c-1.5,0.2-2.8,0.2-3.6,0s-1.5-0.7-1.9-1.3
		c-0.4-0.6-0.5-1.4-0.5-2.2c0-0.5,0.2-0.9,0.3-1.4c0.1-0.4,0.4-0.8,0.7-1.2c0.3-0.3,0.7-0.8,1.2-1.2c0.5-0.4,1-0.7,1.6-1
		c0.5-0.3,1.2-0.6,1.9-0.9c0.7-0.3,1.9-0.8,3.5-1.4c0.5-0.2,0.9-0.3,1.3-0.5c0.3-0.1,0.6-0.3,0.9-0.4c0.3-0.1,0.5-0.3,0.7-0.5
		c0.2-0.1,0.4-0.4,0.5-0.6c0.2-0.2,0.3-0.4,0.5-0.7c0.1-0.2,0.1-0.4,0.1-0.7c0-0.5-0.1-1-0.4-1.3c-0.3-0.4-0.8-0.5-1.4-0.6
		s-1.2,0-2,0.1c-0.7,0.1-1.4,0.3-2.3,0.5c-0.7,0.2-1.5,0.5-2,0.7C357.9,250.4,357.2,250.8,356.4,251.2z"/>
	<path class="st1" d="M369.4,270.6c0-0.9-0.1-1.7-0.2-2.2c0.5,0.2,1.1,0.2,1.5,0.3c0.5,0,0.9,0,1.2-0.1c0.4-0.1,0.8-0.2,1.2-0.4
		c0.4-0.3,0.7-0.5,1.1-0.7c0.3-0.2,0.6-0.7,0.9-1.1s0.7-1.1,1-1.7s0.7-1.4,1.1-2.1l-3-9.4l-2.2-6.7c0.8-0.1,1.3-0.2,1.6-0.2
		c0.3,0,0.8-0.1,1.5-0.2c0.2,0.8,0.2,1.3,0.3,1.6c0.1,0.4,0.3,1.1,0.7,2.4l2.1,7.1c0.3,0.9,0.4,1.7,0.6,2.6l2.2-4.8l4-8.5
		c0.1-0.2,0.2-0.5,0.4-0.7c0.1-0.3,0.3-0.7,0.5-1.3c0.7-0.1,1.2-0.2,1.4-0.2s0.7-0.1,1.5-0.2c-0.5,1.1-1.8,3.4-3.6,7.2l-7.2,14.4
		c-0.5,1-0.9,1.7-1.4,2.3c-0.3,0.4-0.7,0.8-1,1.1c-0.3,0.2-0.6,0.5-1,0.7c-0.4,0.3-0.8,0.4-1.4,0.7c-0.5,0.2-1,0.3-1.7,0.4
		C371.3,270.7,370.4,270.6,369.4,270.6z"/>
	<path class="st1" d="M394.6,259.5l0.6-5l1.1-10.4l0.4-4.8c-2.8,0.4-5.1,0.8-7.2,1.1c0.2-0.9,0.2-1.6,0.3-2.3c2.9-0.4,6-0.9,9.3-1.3
		l5.3-0.8l2.9-0.4c-0.2,1-0.2,1.7-0.3,2.3c-1.7,0.2-3.7,0.4-5.8,0.7l-1.3,0.2l-0.8,7.2l-1,10.2l-0.2,2.7l-1.6,0.2
		C396.2,259.2,395.6,259.3,394.6,259.5z"/>
	<path class="st1" d="M407.6,257.6l0.9-7.1l1-9.7l0.5-5.5l1.5-0.2c0.4-0.1,0.9-0.1,1.5-0.2l-0.8,5.7l-0.3,3.4
		c0.3-0.5,0.6-0.9,0.8-1.2c0.2-0.3,0.5-0.7,0.8-0.9c0.3-0.3,0.6-0.6,1-0.8c0.3-0.2,0.7-0.5,1.2-0.7c0.4-0.2,0.9-0.4,1.6-0.6
		c0.6-0.2,1.2-0.3,1.9-0.4c0.9-0.1,1.8-0.2,2.8-0.1c0.8,0.1,1.6,0.3,2.2,0.7s1,1,1.1,1.5c0.2,0.7,0.2,1.3,0.2,2c0,0.3,0,0.6-0.1,1.1
		c0,0.7-0.2,1.5-0.3,2.4l-0.7,6c0,0.7-0.2,1.5-0.3,2.4c-0.6,0.1-1.1,0.2-1.5,0.2c-0.4,0.1-0.9,0.1-1.6,0.2c0.2-1.2,0.5-3,0.8-5.6
		c0.4-2.5,0.5-4.3,0.6-5.3c0.1-0.9-0.1-1.6-0.4-2.1c-0.3-0.6-0.8-0.9-1.6-1.1c-0.7-0.2-1.5-0.3-2.4-0.1c-0.8,0.1-1.7,0.3-2.4,0.7
		c-0.6,0.3-1.3,0.8-1.7,1.2c-0.5,0.5-0.9,1-1.2,1.7c-0.3,0.6-0.6,1.4-0.7,2c-0.3,1-0.5,2.5-0.7,4.3c-0.1,1.1-0.3,3-0.6,5.6
		c-0.6,0.1-1.1,0.2-1.4,0.2C408.9,257.4,408.4,257.5,407.6,257.6z"/>
	<path class="st1" d="M442.6,250c-0.1,0.6-0.4,1.4-0.6,2.4c-1,0.4-2.1,0.7-2.8,0.9c-0.8,0.2-1.5,0.3-2.4,0.4c-1.4,0.2-2.7,0.2-3.8,0
		c-1.1-0.1-2-0.6-2.8-1.3s-1.2-1.5-1.6-2.5c-0.2-1-0.4-2.1-0.3-3.2c0.1-1.6,0.5-3.1,1.2-4.6s1.8-2.7,3.1-3.7c1.3-1,3-1.6,5-1.9
		c1-0.1,1.9-0.2,2.9,0c0.9,0.2,1.7,0.4,2.3,1c0.6,0.5,1,1.1,1.3,2s0.4,1.7,0.3,2.7c0,0.4-0.1,0.8-0.2,1.1l-12.8,1.8
		c0,0.6-0.2,1.1-0.2,1.4c-0.1,1.1,0.1,2.2,0.5,3.1c0.4,0.9,1.1,1.5,2,1.9s2,0.4,3.2,0.2C438.7,251.7,440.5,251,442.6,250z
		 M431.8,243.9l10-1.4c0-0.7,0-1.2,0-1.6c0-0.4-0.2-0.8-0.3-1.1c-0.2-0.4-0.5-0.7-0.8-1s-0.8-0.4-1.3-0.5s-1-0.1-1.6,0
		s-1.2,0.3-1.9,0.6c-0.6,0.3-1.2,0.6-1.6,0.9c-0.4,0.4-0.9,0.8-1.2,1.3c-0.3,0.4-0.6,0.9-0.8,1.3C432,242.7,431.9,243.3,431.8,243.9
		z"/>
	<path class="st1" d="M447,252c0.4-2.8,0.9-6.4,1.3-10.4c0.5-4.1,0.8-8.1,1.1-12c0.8-0.1,1.3-0.2,1.7-0.2l1.5-0.2l-1.2,10.4l-1,9.8
		l3.2-0.5c2.4-0.3,4-0.6,5-0.7c0.9-0.1,2-0.4,2.8-0.5c-0.1,0.7-0.2,1.5-0.4,2.3c-2.6,0.4-4.8,0.7-6.8,1L447,252z"/>
	<path class="st1" d="M465.7,235.6c0.1-0.5,0.3-1.2,0.4-2.1c1.4-0.5,2.5-1,3.5-1.2s2-0.5,2.9-0.6c1-0.1,1.9-0.2,2.9-0.1
		c0.9,0.1,1.6,0.3,2.1,0.6c0.6,0.3,0.9,0.8,1,1.2s0.2,1.1,0.2,1.7c-0.1,0.8-0.2,2-0.5,3.8c-0.2,1.8-0.4,3.4-0.6,4.9s-0.3,2.8-0.4,4
		c-0.6,0.1-1.1,0.2-1.4,0.2s-0.8,0.1-1.5,0.2l0.6-4.5l0.6-5.3c-0.4,0.4-0.8,0.6-1,0.7c-0.2,0.1-0.4,0.3-0.6,0.4s-0.5,0.3-0.8,0.4
		c-0.3,0.1-0.9,0.4-1.8,0.7c-0.8,0.3-1.5,0.6-1.9,0.8c-0.8,0.3-1.4,0.7-1.9,1c-0.4,0.3-0.9,0.6-1.2,1c-0.3,0.3-0.6,0.7-0.7,1
		s-0.3,0.7-0.3,1.1c0,0.6,0.1,1.1,0.4,1.4c0.3,0.4,0.8,0.6,1.3,0.7c0.5,0.1,1.2,0.1,1.9,0c0.5-0.1,0.9-0.1,1.4-0.3s1.2-0.4,2.1-0.8
		c-0.2,0.4-0.4,1.1-0.6,2c-0.8,0.3-1.5,0.4-2,0.6c-0.5,0.1-1,0.2-1.4,0.3c-1.5,0.2-2.8,0.2-3.6,0c-0.8-0.2-1.5-0.7-1.9-1.3
		s-0.5-1.4-0.5-2.2c0-0.5,0.2-0.9,0.3-1.4c0.1-0.4,0.4-0.8,0.7-1.2c0.3-0.3,0.7-0.8,1.2-1.2s1-0.7,1.6-1c0.5-0.3,1.2-0.6,1.9-0.9
		c0.7-0.3,1.9-0.8,3.5-1.4c0.5-0.2,0.9-0.3,1.3-0.5c0.3-0.1,0.6-0.3,0.9-0.4c0.3-0.1,0.5-0.3,0.7-0.5c0.2-0.1,0.4-0.4,0.5-0.6
		c0.2-0.2,0.3-0.4,0.5-0.7c0.1-0.2,0.1-0.4,0.1-0.7c0-0.5-0.1-1-0.4-1.3c-0.3-0.4-0.8-0.5-1.4-0.6s-1.2,0-2,0.1
		c-0.7,0.1-1.4,0.3-2.3,0.5c-0.7,0.2-1.5,0.5-2,0.7C467.3,234.7,466.6,235.1,465.7,235.6z"/>
	<path class="st1" d="M481.3,246.8v-1.2c0-0.1,0-0.5,0-1.3c1.7,0.4,3.2,0.6,4.7,0.4c0.7-0.1,1.4-0.3,2-0.6c0.5-0.3,1-0.6,1.3-1.1
		c0.3-0.4,0.5-0.9,0.5-1.3c0-0.2,0-0.5-0.1-0.7s-0.2-0.4-0.3-0.7s-0.4-0.3-0.6-0.6c-0.3-0.3-0.9-0.6-1.7-1.1s-1.5-1.1-1.9-1.4
		c-0.5-0.3-0.8-0.7-1.2-1c-0.4-0.3-0.6-0.7-0.6-1.2c-0.2-0.4-0.1-0.9-0.1-1.3c0-0.7,0.3-1.4,0.9-2.1c0.5-0.8,1.2-1.3,2.1-1.8
		c0.8-0.4,1.9-0.8,3-0.9c1.3-0.2,2.7-0.3,4.2-0.2c-0.1,0.9,0,1.6,0.1,2.3c-1.2-0.3-2.4-0.4-3.7-0.3c-0.6,0.1-1.2,0.3-1.9,0.6
		s-1.1,0.5-1.3,1c-0.3,0.3-0.5,0.8-0.5,1.2c0,0.3,0,0.5,0.1,0.8s0.2,0.5,0.5,0.7c0.2,0.3,0.5,0.5,0.8,0.7c0.3,0.3,0.9,0.7,1.9,1.2
		c0.9,0.7,1.6,1.1,1.8,1.4c0.3,0.4,0.6,0.6,0.9,1s0.4,0.7,0.4,1c0.1,0.4,0.2,0.8,0.1,1.2c-0.1,0.8-0.3,1.5-0.9,2.2s-1.2,1.4-2.2,1.8
		c-1,0.5-2,0.8-3.1,0.9c-0.5,0.1-1,0.1-1.7,0.2c-0.6,0-1.2,0.1-1.6,0C482.5,246.9,481.9,246.9,481.3,246.8z"/>
	<path class="st1" d="M504.4,241.7c-0.1,0.5-0.4,1.2-0.5,2.2c-0.7,0.3-1.4,0.5-1.9,0.6c-0.4,0.1-0.9,0.2-1.2,0.3
		c-1,0.1-1.8,0.2-2.3-0.1c-0.6-0.1-1-0.5-1.4-1c-0.3-0.5-0.4-1.2-0.4-2.1c0-0.1,0-0.3,0-0.6s0.2-1.4,0.4-3.2l0.9-7.3l-2.3,0.3
		c0-0.5,0.2-1.1,0.2-2l2.3-0.3c0.1-0.6,0.2-1.7,0.4-3.1c1-0.3,2-0.7,2.7-1c-0.2,1.6-0.3,2.8-0.3,3.7l4.6-0.7c-0.1,0.7-0.2,1.3-0.2,2
		l-4.6,0.7l-1,9.2v0.7c-0.1,0.8,0,1.4,0.2,1.8s0.4,0.6,0.8,0.8c0.4,0.1,0.7,0.2,1.1,0.1c0.3,0,0.6-0.1,0.9-0.2
		C503,242.2,503.6,242,504.4,241.7z"/>
	<path class="st1" d="M507.1,243.4l0.6-4.5l1.5-13.4l0.3-2.6c0.1-0.8,0.1-1.5,0.1-1.9c0.8-0.1,1.5-0.2,2.1-0.3
		c0.4-0.1,1.1-0.2,2-0.3l1.7,2.6l10,14.7l2-19.3l1.5-0.2l1.4-0.2l-0.8,5.7l-1.1,10.1l-0.6,6.5c-0.6,0.1-1.3,0.2-2,0.3
		c-0.6,0.1-1.2,0.2-2.1,0.3l-1.4-2.2L512,223.9c0,0.6-0.2,1.6-0.3,2.9l-1.3,11.6l-0.3,4.5c-0.7,0.1-1.2,0.2-1.4,0.2
		C508.5,243.2,508,243.2,507.1,243.4z"/>
	<path class="st1" d="M548.7,237.4c-0.5,0.1-1,0.1-1.4,0.2s-0.9,0.1-1.4,0.2l0.3-3.2c-0.3,0.5-0.6,1-0.8,1.2
		c-0.2,0.3-0.4,0.6-0.8,0.9c-0.3,0.3-0.6,0.6-1,0.7c-0.3,0.2-0.7,0.4-1.2,0.7c-0.4,0.2-0.9,0.4-1.5,0.5s-1.1,0.3-1.8,0.3
		c-1.3,0.2-2.6,0.2-3.5-0.1s-1.7-0.7-2-1.4c-0.5-0.6-0.6-1.7-0.5-2.9c0-0.2,0-0.5,0.1-1c0-0.5,0.2-1.1,0.2-1.8l0.7-5.4l0.1-1.8
		c0-0.4,0.1-0.9,0.1-1.5l1.5-0.2c0.3,0,0.8-0.1,1.4-0.2c-0.3,1.9-0.6,4-0.8,6.3c-0.3,2.3-0.4,3.7-0.5,4.4c-0.1,1,0.1,1.7,0.4,2.2
		c0.3,0.6,0.8,0.9,1.6,1.1c0.8,0.2,1.5,0.3,2.5,0.1c0.8-0.1,1.7-0.3,2.4-0.7c0.6-0.4,1.3-0.8,1.7-1.2c0.5-0.6,1-1.2,1.4-2
		c0.2-0.5,0.5-1.3,0.7-2.2c0.1-0.6,0.3-1.7,0.4-3.4c0.2-2,0.4-4,0.6-6l1.5-0.2c0.3,0,0.8-0.1,1.4-0.2c-0.3,2-0.6,4.9-1.1,8.9
		C549.2,232,549,234.5,548.7,237.4z"/>
	<path class="st1" d="M553.3,236.8l0.4-2.4c0-0.5,0.2-1.3,0.3-2.4l1.1-10c0.1-0.8,0.1-1.4,0.1-1.9c0.5-0.1,1-0.1,1.4-0.2
		c0.5-0.1,0.9-0.1,1.4-0.2l-0.3,3c0.5-0.7,0.8-1.2,1.1-1.6c0.3-0.4,0.8-0.8,1.3-1.2s1.1-0.6,1.8-0.9c0.7-0.3,1.4-0.5,2.1-0.6
		c0.5-0.1,0.9,0,1.4,0s0.9,0.2,1.3,0.3c0.4,0.1,0.7,0.3,1,0.6s0.5,0.4,0.7,0.7s0.3,0.7,0.4,1.2c0.8-1.4,1.7-2.3,2.7-3
		c1.1-0.6,2.2-1.1,3.4-1.3c0.8-0.1,1.5-0.1,2.3,0.1c0.7,0.2,1.3,0.4,1.8,0.8c0.4,0.4,0.7,0.9,0.8,1.4s0.1,1,0.1,1.5
		s-0.1,1.3-0.3,2.4c-0.2,1-0.4,2.6-0.6,4.8c-0.2,2.1-0.5,3.9-0.6,5.4c-0.6,0.1-1,0.1-1.4,0.2c-0.3,0-0.9,0.1-1.6,0.2
		c0.2-1.5,0.4-3.1,0.6-4.8l0.5-4.1c0.2-1,0.2-1.8,0.3-2.5c0-0.6,0-1.1-0.1-1.5s-0.3-0.7-0.6-0.9c-0.3-0.3-0.6-0.4-1.1-0.4
		c-0.4,0-0.9-0.1-1.5,0c-0.4,0.1-0.8,0.1-1.2,0.3c-0.3,0.1-0.7,0.3-1.1,0.5c-0.4,0.3-0.8,0.6-1.1,0.9c-0.3,0.3-0.6,0.7-0.8,1.1
		c-0.2,0.4-0.5,0.9-0.6,1.5c-0.3,0.7-0.4,1.5-0.5,2.4c-0.2,1-0.3,2.4-0.5,4l-0.4,4.6c-0.6,0.1-1.1,0.2-1.4,0.2
		c-0.3,0-0.8,0.1-1.5,0.2c0.2-1.4,0.4-2.7,0.6-4.2l0.5-4c0.2-1.2,0.3-2.3,0.3-3.1c0-0.6,0-1-0.1-1.4s-0.3-0.7-0.5-1
		c-0.3-0.3-0.7-0.5-1.1-0.5c-0.4-0.1-0.9-0.2-1.4-0.1c-0.5,0.1-1.1,0.3-1.7,0.5c-0.5,0.3-1,0.6-1.5,1c-0.4,0.5-0.9,0.9-1.1,1.5
		c-0.3,0.5-0.6,1.3-0.9,2.2c-0.3,0.9-0.5,2.4-0.7,4.6c-0.2,2.2-0.4,4-0.5,5.5c-0.7,0.1-1.2,0.2-1.4,0.2
		C554.5,236.6,554,236.7,553.3,236.8z"/>
	<path class="st1" d="M583,232.5l0.2-1.8c0-0.3,0.2-0.9,0.2-1.8l1.2-11.1l0.7-7.6c0.7-0.1,1.2-0.2,1.6-0.2c0.4-0.1,0.9-0.1,1.5-0.2
		c-0.3,1.4-0.5,3.4-0.8,6c1.2-0.5,2.2-0.7,2.9-0.9s1.5-0.3,2.3-0.4c1.4-0.2,2.7-0.2,3.7,0s1.9,0.6,2.6,1.3c0.7,0.7,1.1,1.5,1.3,2.5
		s0.3,1.9,0.2,3c-0.1,1.2-0.4,2.4-0.7,3.7c-0.4,1.2-1.1,2.3-1.8,3.3c-0.8,1-1.6,1.8-2.7,2.4c-1.1,0.5-2.2,0.9-3.4,1.1
		c-0.6,0.1-1.2,0.1-1.8,0.1s-1.1-0.1-1.5-0.4c-0.4-0.1-0.8-0.4-1.1-0.6c-0.3-0.3-0.6-0.5-0.8-0.8s-0.4-0.6-0.6-1.2l-0.2,3.4
		c-0.6,0.1-1.1,0.2-1.3,0.2C584.2,232.4,583.7,232.4,583,232.5z M587.3,218c-0.2,1.8-0.3,3-0.4,3.6c0,0.6-0.1,1.3-0.1,2.1
		c-0.1,1.7,0,3,0.4,3.8s0.9,1.4,1.7,1.8c0.8,0.4,1.7,0.4,2.7,0.3c1.1-0.2,2.2-0.6,3.1-1.3c0.9-0.7,1.6-1.7,2.1-2.9
		c0.6-1.3,0.9-2.5,1-3.8c0.1-1.8-0.3-3.1-1.2-4.2c-1-1-2.4-1.3-4.3-1.1c-0.7,0.1-1.4,0.3-2.2,0.5C589.3,217.2,588.4,217.5,587.3,218
		z"/>
	<path class="st1" d="M617.4,225c-0.1,0.6-0.4,1.4-0.6,2.4c-1,0.4-2.1,0.7-2.8,0.9c-0.8,0.2-1.5,0.3-2.4,0.4c-1.4,0.2-2.7,0.2-3.8,0
		s-2-0.6-2.8-1.3s-1.2-1.5-1.6-2.5c-0.2-1-0.4-2.1-0.3-3.2c0.1-1.6,0.5-3.1,1.2-4.6s1.8-2.7,3.1-3.7s3-1.6,5-1.9
		c1-0.1,1.9-0.2,2.9,0s1.7,0.4,2.3,1c0.6,0.5,1,1.1,1.3,2s0.4,1.7,0.3,2.7c0,0.4-0.1,0.8-0.2,1.1l-12.9,1.8c0,0.6-0.2,1.1-0.2,1.4
		c-0.1,1.1,0.1,2.2,0.5,3.1c0.4,0.9,1.1,1.5,2,1.9s2,0.4,3.2,0.2C613.5,226.7,615.3,226,617.4,225z M606.6,218.9l10-1.4
		c0-0.7,0-1.2,0-1.6c0-0.4-0.2-0.8-0.3-1.1c-0.2-0.4-0.5-0.7-0.8-1s-0.8-0.4-1.3-0.5s-1-0.1-1.6,0s-1.2,0.3-1.9,0.6
		c-0.6,0.3-1.2,0.6-1.6,0.9c-0.4,0.4-0.9,0.8-1.2,1.3c-0.3,0.4-0.6,0.9-0.8,1.3S606.8,218.3,606.6,218.9z"/>
	<path class="st1" d="M621.6,227c0.8-6.3,1.4-11.4,1.6-15.1l0.1-1.5c0.6-0.1,1-0.1,1.4-0.2s0.9-0.1,1.4-0.2l-0.3,2.7
		c0.5-0.8,0.9-1.3,1.2-1.7c0.3-0.3,0.8-0.7,1.2-1.1c0.4-0.4,0.8-0.5,1.4-0.7c0.5-0.2,1-0.3,1.6-0.4c0.5-0.1,0.9,0,1.4,0
		c0,0.7-0.1,1.5-0.1,2.4c-0.7-0.1-1.3-0.1-1.8,0c-0.6,0.1-1.2,0.3-1.8,0.5c-0.5,0.3-1.1,0.6-1.5,1.2c-0.4,0.5-0.8,1-1.1,1.6
		c-0.2,0.5-0.5,1.2-0.6,2c-0.2,0.8-0.3,2.2-0.6,4.2c-0.1,1.5-0.3,3-0.4,4.7l-0.1,1.1c-0.6,0.1-1.1,0.2-1.4,0.2
		C622.7,226.9,622.2,226.9,621.6,227z"/>
</g>
<g>
	<path class="st1" d="M414.9,287l-0.7,2.4l-1.3,0.2l-4.3,14.8l1.3-0.2l-0.7,2.4l-5.5,0.8l0.7-2.4l1.5-0.2l1-3.5l-0.1,0
		c-0.9,1-1.8,1.5-2.7,1.7c-1.2,0.2-1.9-0.3-2.1-1.5c-0.2-1.1,0.2-3.2,1-6c0.7-2.2,1.5-4.1,2.4-5.5c1-1.4,2-2.2,3.2-2.3
		c0.9-0.1,1.5,0.3,1.8,1.3l0.1,0l0.4-1.5L414.9,287z M408.2,296.9l0.7-2.3c0.6-1.9,0.8-3.1,0.8-3.7c0-0.6-0.3-0.9-0.9-0.8
		c-0.5,0.1-1,0.4-1.4,1c-0.4,0.6-0.7,1.6-1.1,2.8l-0.6,2c-0.6,1.9-0.8,3.2-0.8,3.8c0,0.6,0.3,0.9,0.8,0.8
		C406.6,300.4,407.5,299.2,408.2,296.9z"/>
	<path class="st1" d="M415.1,301.3l1-12.2l-1.1,0.2l0.7-2.3l4.8-0.7l-0.7,2.3l-1,0.1l-0.9,7.8l4.7-10.5l2.5-0.4l-1,10l3.6-8.1
		l-1.2,0.2l0.7-2.3l4.7-0.7l-0.7,2.3l-1.2,0.2l-6.3,13l-2.5,0.4l1-10l-4.9,10.6L415.1,301.3z"/>
	<path class="st1" d="M443.2,282.9l-0.7,2.4l-1.3,0.2l-4.3,14.8l1.3-0.2l-0.7,2.4l-5.5,0.8l0.7-2.4l1.5-0.2l1-3.5l-0.1,0
		c-0.9,1-1.8,1.5-2.7,1.7c-1.2,0.2-1.9-0.3-2.1-1.5c-0.2-1.1,0.2-3.2,1-6c0.7-2.2,1.5-4.1,2.4-5.5c1-1.4,2-2.2,3.2-2.3
		c0.9-0.1,1.5,0.3,1.8,1.3l0.1,0l0.4-1.5L443.2,282.9z M436.5,292.8l0.7-2.3c0.6-1.9,0.8-3.1,0.8-3.7c0-0.6-0.3-0.9-0.9-0.8
		c-0.5,0.1-1,0.4-1.4,1c-0.4,0.6-0.7,1.6-1.1,2.8l-0.6,2c-0.6,1.9-0.8,3.2-0.8,3.8c0,0.6,0.3,0.9,0.8,0.8
		C435,296.3,435.8,295.1,436.5,292.8z"/>
	<path class="st1" d="M447.8,291.2l2.1,0.7c-0.5,1.5-1.2,2.7-2.2,3.6c-1,0.9-2,1.5-3.1,1.6c-1.6,0.2-2.5-0.2-2.8-1.3
		c-0.3-1.1-0.1-3,0.7-5.8c0.8-2.7,1.6-4.6,2.5-5.9c0.9-1.3,2-2,3.2-2.2c1-0.1,1.6,0.2,1.8,1.1l0.1,0l0.4-1.2l2.5-0.4l-1.6,5.3
		l-2.5,0.4c0.3-1.2,0.5-2,0.4-2.4c-0.1-0.4-0.4-0.6-0.9-0.6c-0.6,0.1-1.1,0.5-1.4,1.1c-0.4,0.6-0.8,1.7-1.2,3.2l-0.7,2.2
		c-0.5,1.6-0.7,2.6-0.6,3.2c0.1,0.6,0.3,0.8,0.9,0.7c0.6-0.1,1-0.4,1.4-0.9C447,293.4,447.4,292.5,447.8,291.2z"/>
	<path class="st1" d="M454.5,295.7c-1.4,0.2-2.3-0.3-2.5-1.4c-0.3-1.2,0-3.1,0.7-5.7c0.8-2.7,1.7-4.7,2.7-6c1-1.3,2.2-2.1,3.6-2.3
		c2.7-0.4,3.4,2,1.9,7.1C459.4,292.6,457.2,295.3,454.5,295.7z M458.3,282.7c-0.5,0.1-0.9,0.5-1.3,1.2c-0.4,0.7-0.9,2.1-1.5,4.2
		c-0.5,1.5-0.7,2.7-0.9,3.4c-0.1,0.7-0.2,1.2-0.1,1.4c0.1,0.2,0.3,0.3,0.6,0.3c0.6-0.1,1-0.5,1.4-1.4c0.4-0.8,0.8-2.2,1.4-4.1
		c0.6-2.1,0.9-3.5,1-4.2C459,283,458.8,282.7,458.3,282.7z"/>
	<path class="st1" d="M470.2,293.1l-4,0.6l0.4-1.5l-0.1,0c-0.4,0.6-0.9,1-1.3,1.4s-0.9,0.5-1.5,0.6c-1.1,0.2-1.8-0.3-2-1.5
		c-0.2-1.2,0-2.9,0.7-5.3c0.8-2.9,1.7-5,2.6-6.2c0.9-1.3,1.9-2,3.1-2.2c0.9-0.1,1.6,0.2,1.9,1l0.1,0l1.4-4.9l-1.7,0.3l0.7-2.4
		l4.5-0.6l-5.5,18.7l1.3-0.2L470.2,293.1z M468.2,286.7l0.7-2.3c0.3-1.2,0.5-2.1,0.4-2.6c-0.1-0.5-0.4-0.7-0.9-0.7
		c-0.6,0.1-1,0.5-1.4,1.1c-0.4,0.7-0.8,1.8-1.3,3.5l-1,3.3c-0.5,1.8-0.3,2.7,0.6,2.5c0.6-0.1,1.1-0.4,1.5-1.1
		C467.2,289.9,467.7,288.7,468.2,286.7z"/>
	<path class="st1" d="M478.8,287.6l2.1,0.5c-0.7,1.3-1.5,2.4-2.4,3.1c-0.9,0.8-1.8,1.2-2.7,1.4c-1.4,0.2-2.3-0.2-2.6-1.4
		c-0.3-1.1-0.1-3,0.7-5.6c0.8-2.6,1.7-4.7,2.7-6.1c1.1-1.4,2.3-2.2,3.7-2.4c1.2-0.2,2,0.2,2.4,1.2c0.4,1,0.4,2.4-0.2,4.4l-0.7,2.2
		l-5.3,0.8l-0.2,0.6c-0.4,1.3-0.6,2.3-0.5,2.9c0,0.6,0.3,0.9,0.8,0.8C477.5,290.1,478.2,289.2,478.8,287.6z M477.2,283.8l2.6-0.4
		l0.4-1.3c0.5-1.8,0.4-2.7-0.5-2.6c-0.5,0.1-0.9,0.4-1.2,1c-0.3,0.6-0.7,1.4-1,2.6L477.2,283.8z"/>
</g>
</svg>
